<svg width="30" height="30" viewBox="0 0 30 30" fill="none" xmlns="http://www.w3.org/2000/svg">
<circle cx="15" cy="15" r="15" fill="#ECECEC"/>
<path d="M20.3391 21.195L20.5597 21.6437L20.3391 21.195ZM13.1406 9.20125L12.6423 9.16058L13.1406 9.20125ZM9.5 14.1271C9.5 11.9183 10.4709 9.93686 12.0109 8.58515L11.3512 7.83359C9.60411 9.3671 8.5 11.6185 8.5 14.1271H9.5ZM16.8711 21.4982C12.8002 21.4982 9.5 18.1981 9.5 14.1271H8.5C8.5 18.7503 12.2479 22.4982 16.8711 22.4982V21.4982ZM20.1185 20.7463C19.1394 21.2277 18.0376 21.4982 16.8711 21.4982V22.4982C18.1939 22.4982 19.4463 22.1911 20.5597 21.6437L20.1185 20.7463ZM20.1349 18.9906C16.3467 17.7681 13.6074 14.213 13.6074 10.0193H12.6074C12.6074 14.6595 15.6387 18.5904 19.8277 19.9423L20.1349 18.9906ZM13.6074 10.0193C13.6074 9.75747 13.6181 9.49819 13.639 9.24191L12.6423 9.16058C12.6192 9.44389 12.6074 9.7303 12.6074 10.0193H13.6074ZM20.5597 21.6437C21.1878 21.335 21.3805 20.7174 21.2504 20.1711C21.1265 19.6512 20.716 19.1782 20.1349 18.9906L19.8277 19.9423C20.0752 20.0222 20.2344 20.2214 20.2776 20.4028C20.2983 20.4898 20.2893 20.5577 20.2694 20.6045C20.2516 20.6461 20.2137 20.6995 20.1185 20.7463L20.5597 21.6437ZM12.0109 8.58515C12.0907 8.51513 12.1546 8.50046 12.2001 8.50001C12.2512 8.4995 12.3173 8.51724 12.3896 8.56959C12.5406 8.67882 12.6634 8.90166 12.6423 9.16058L13.639 9.24191C13.6887 8.63309 13.4089 8.07284 12.9759 7.75949C12.5211 7.4303 11.8769 7.37217 11.3512 7.83359L12.0109 8.58515Z" fill="black"/>
</svg>
