<svg width="30" height="30" viewBox="0 0 30 30" fill="none" xmlns="http://www.w3.org/2000/svg">
<circle cx="15" cy="15" r="15" fill="#ECECEC"/>
<path d="M13.4092 18.5911V15.8184C13.4092 15.2661 13.8569 14.8184 14.4092 14.8184H17.1819C17.7342 14.8184 18.1819 15.2661 18.1819 15.8184V18.5911C18.1819 19.1434 17.7342 19.5911 17.1819 19.5911H14.4092C13.8569 19.5911 13.4092 19.1434 13.4092 18.5911Z" stroke="black"/>
<path d="M10 22V9C10 8.44772 10.4477 8 11 8H15.7222C15.9874 8 16.2417 8.10536 16.4293 8.29289L20.6162 12.4798C20.8037 12.6674 20.9091 12.9217 20.9091 13.1869V22C20.9091 22.5523 20.4614 23 19.9091 23H11C10.4477 23 10 22.5523 10 22Z" stroke="black"/>
<rect x="16.1367" y="16.1816" width="1.36364" height="1.36364" fill="black"/>
<rect x="14.7725" y="17.5454" width="1.36364" height="1.36364" fill="black"/>
</svg>
